<?xml version="1.0" standalone="no"?><!DOCTYPE svg PUBLIC "-//W3C//DTD SVG 1.1//EN" "http://www.w3.org/Graphics/SVG/1.1/DTD/svg11.dtd"><svg class="icon" width="200px" height="200.00px" viewBox="0 0 1024 1024" version="1.1" xmlns="http://www.w3.org/2000/svg"><path fill="#333333" d="M921.6 0 102.4 0C46.08 0 0 46.08 0 102.4l0 819.2c0 56.32 46.08 102.4 102.4 102.4l819.2 0c56.32 0 102.4-46.08 102.4-102.4L1024 102.4C1024 46.08 977.92 0 921.6 0zM972.8 921.6c0 28.2368-22.9632 51.2-51.2 51.2L102.4 972.8c-28.2368 0-51.2-22.9632-51.2-51.2L51.2 102.4c0-28.2368 22.9632-51.2 51.2-51.2l819.2 0c28.2368 0 51.2 22.9632 51.2 51.2L972.8 921.6zM128 422.4l768 0 0 179.2-768 0 0-179.2ZM128 704l768 0 0 179.2-768 0 0-179.2ZM128 140.8l768 0 0 179.2-768 0 0-179.2Z" /></svg>