<?xml version="1.0" standalone="no"?><!DOCTYPE svg PUBLIC "-//W3C//DTD SVG 1.1//EN" "http://www.w3.org/Graphics/SVG/1.1/DTD/svg11.dtd"><svg class="icon" width="200px" height="200.00px" viewBox="0 0 1024 1024" version="1.1" xmlns="http://www.w3.org/2000/svg"><path fill="#333333" d="M921.6 0 102.4 0C46.08 0 0 46.08 0 102.4l0 819.2c0 56.32 46.08 102.4 102.4 102.4l819.2 0c56.32 0 102.4-46.08 102.4-102.4L1024 102.4C1024 46.08 977.92 0 921.6 0zM972.8 921.6c0 28.2368-22.9632 51.2-51.2 51.2L102.4 972.8c-28.2368 0-51.2-22.9632-51.2-51.2L51.2 102.4c0-28.2368 22.9632-51.2 51.2-51.2l819.2 0c28.2368 0 51.2 22.9632 51.2 51.2L972.8 921.6zM128 422.4l768 0 0 179.2-768 0 0-179.2ZM409.6 857.6l25.6 0 0 25.6-25.6 0 0-25.6ZM409.6 704l25.6 0 0 25.6-25.6 0 0-25.6ZM358.4 704l25.6 0 0 25.6-25.6 0 0-25.6ZM358.4 857.6l25.6 0 0 25.6-25.6 0 0-25.6ZM460.8 704l25.6 0 0 25.6-25.6 0 0-25.6ZM512 857.6l25.6 0 0 25.6-25.6 0 0-25.6ZM512 704l25.6 0 0 25.6-25.6 0 0-25.6ZM307.2 704l25.6 0 0 25.6-25.6 0 0-25.6ZM460.8 857.6l25.6 0 0 25.6-25.6 0 0-25.6ZM307.2 857.6l25.6 0 0 25.6-25.6 0 0-25.6ZM128 806.4l25.6 0 0 25.6-25.6 0 0-25.6ZM204.8 857.6l25.6 0 0 25.6-25.6 0 0-25.6ZM128 755.2l25.6 0 0 25.6-25.6 0 0-25.6ZM128 857.6 128 883.2 153.6 883.2 179.2 883.2 179.2 857.6 153.6 857.6ZM256 704l25.6 0 0 25.6-25.6 0 0-25.6ZM256 857.6l25.6 0 0 25.6-25.6 0 0-25.6ZM204.8 704l25.6 0 0 25.6-25.6 0 0-25.6ZM128 729.6 153.6 729.6 179.2 729.6 179.2 704 128 704ZM819.2 857.6l25.6 0 0 25.6-25.6 0 0-25.6ZM819.2 704l25.6 0 0 25.6-25.6 0 0-25.6ZM870.4 857.6 870.4 883.2 896 883.2 896 857.6 896 832 870.4 832ZM768 704l25.6 0 0 25.6-25.6 0 0-25.6ZM870.4 780.8l25.6 0 0 25.6-25.6 0 0-25.6ZM563.2 857.6l25.6 0 0 25.6-25.6 0 0-25.6ZM870.4 729.6 870.4 755.2 896 755.2 896 704 870.4 704ZM768 857.6l25.6 0 0 25.6-25.6 0 0-25.6ZM614.4 704l25.6 0 0 25.6-25.6 0 0-25.6ZM665.6 857.6l25.6 0 0 25.6-25.6 0 0-25.6ZM716.8 704l25.6 0 0 25.6-25.6 0 0-25.6ZM614.4 857.6l25.6 0 0 25.6-25.6 0 0-25.6ZM563.2 704l25.6 0 0 25.6-25.6 0 0-25.6ZM665.6 704l25.6 0 0 25.6-25.6 0 0-25.6ZM716.8 857.6l25.6 0 0 25.6-25.6 0 0-25.6ZM614.4 294.4l25.6 0 0 25.6-25.6 0 0-25.6ZM614.4 140.8l25.6 0 0 25.6-25.6 0 0-25.6ZM563.2 140.8l25.6 0 0 25.6-25.6 0 0-25.6ZM460.8 140.8l25.6 0 0 25.6-25.6 0 0-25.6ZM665.6 294.4l25.6 0 0 25.6-25.6 0 0-25.6ZM512 294.4l25.6 0 0 25.6-25.6 0 0-25.6ZM512 140.8l25.6 0 0 25.6-25.6 0 0-25.6ZM563.2 294.4l25.6 0 0 25.6-25.6 0 0-25.6ZM819.2 140.8l25.6 0 0 25.6-25.6 0 0-25.6ZM768 140.8l25.6 0 0 25.6-25.6 0 0-25.6ZM819.2 294.4l25.6 0 0 25.6-25.6 0 0-25.6ZM665.6 140.8l25.6 0 0 25.6-25.6 0 0-25.6ZM460.8 294.4l25.6 0 0 25.6-25.6 0 0-25.6ZM716.8 294.4l25.6 0 0 25.6-25.6 0 0-25.6ZM768 294.4l25.6 0 0 25.6-25.6 0 0-25.6ZM716.8 140.8l25.6 0 0 25.6-25.6 0 0-25.6ZM204.8 294.4l25.6 0 0 25.6-25.6 0 0-25.6ZM179.2 320 179.2 294.4 153.6 294.4 128 294.4 128 320 153.6 320ZM128 243.2l25.6 0 0 25.6-25.6 0 0-25.6ZM128 192l25.6 0 0 25.6-25.6 0 0-25.6ZM204.8 140.8l25.6 0 0 25.6-25.6 0 0-25.6ZM179.2 166.4 179.2 140.8 128 140.8 128 166.4 153.6 166.4ZM870.4 294.4 870.4 320 896 320 896 294.4 896 268.8 870.4 268.8ZM870.4 166.4 870.4 192 896 192 896 140.8 870.4 140.8ZM870.4 217.6l25.6 0 0 25.6-25.6 0 0-25.6ZM256 140.8l25.6 0 0 25.6-25.6 0 0-25.6ZM358.4 294.4l25.6 0 0 25.6-25.6 0 0-25.6ZM358.4 140.8l25.6 0 0 25.6-25.6 0 0-25.6ZM409.6 294.4l25.6 0 0 25.6-25.6 0 0-25.6ZM256 294.4l25.6 0 0 25.6-25.6 0 0-25.6ZM307.2 140.8l25.6 0 0 25.6-25.6 0 0-25.6ZM409.6 140.8l25.6 0 0 25.6-25.6 0 0-25.6ZM307.2 294.4l25.6 0 0 25.6-25.6 0 0-25.6Z" /></svg>